<svg width="19" height="18" viewBox="0 0 19 18" fill="none" xmlns="http://www.w3.org/2000/svg">
<path d="M4.39875 14.25C4.57953 13.7377 4.91477 13.294 5.35827 12.9802C5.80178 12.6664 6.3317 12.4979 6.875 12.4979C7.4183 12.4979 7.94822 12.6664 8.39173 12.9802C8.83523 13.294 9.17047 13.7377 9.35125 14.25H18.25V16H9.35125C9.17047 16.5124 8.83523 16.956 8.39173 17.2698C7.94822 17.5836 7.4183 17.7522 6.875 17.7522C6.3317 17.7522 5.80178 17.5836 5.35827 17.2698C4.91477 16.956 4.57953 16.5124 4.39875 16H0.75V14.25H4.39875ZM9.64875 8.12501C9.82953 7.61267 10.1648 7.16901 10.6083 6.8552C11.0518 6.54138 11.5817 6.37286 12.125 6.37286C12.6683 6.37286 13.1982 6.54138 13.6417 6.8552C14.0852 7.16901 14.4205 7.61267 14.6012 8.12501H18.25V9.87501H14.6012C14.4205 10.3874 14.0852 10.831 13.6417 11.1448C13.1982 11.4586 12.6683 11.6272 12.125 11.6272C11.5817 11.6272 11.0518 11.4586 10.6083 11.1448C10.1648 10.831 9.82953 10.3874 9.64875 9.87501H0.75V8.12501H9.64875ZM4.39875 2.00001C4.57953 1.48767 4.91477 1.04401 5.35827 0.730199C5.80178 0.416385 6.3317 0.247864 6.875 0.247864C7.4183 0.247864 7.94822 0.416385 8.39173 0.730199C8.83523 1.04401 9.17047 1.48767 9.35125 2.00001H18.25V3.75001H9.35125C9.17047 4.26235 8.83523 4.706 8.39173 5.01982C7.94822 5.33363 7.4183 5.50215 6.875 5.50215C6.3317 5.50215 5.80178 5.33363 5.35827 5.01982C4.91477 4.706 4.57953 4.26235 4.39875 3.75001H0.75V2.00001H4.39875ZM6.875 3.75001C7.10706 3.75001 7.32962 3.65782 7.49372 3.49373C7.65781 3.32963 7.75 3.10707 7.75 2.87501C7.75 2.64294 7.65781 2.42038 7.49372 2.25629C7.32962 2.0922 7.10706 2.00001 6.875 2.00001C6.64294 2.00001 6.42038 2.0922 6.25628 2.25629C6.09219 2.42038 6 2.64294 6 2.87501C6 3.10707 6.09219 3.32963 6.25628 3.49373C6.42038 3.65782 6.64294 3.75001 6.875 3.75001ZM12.125 9.87501C12.3571 9.87501 12.5796 9.78282 12.7437 9.61873C12.9078 9.45463 13 9.23207 13 9.00001C13 8.76794 12.9078 8.54538 12.7437 8.38129C12.5796 8.2172 12.3571 8.12501 12.125 8.12501C11.8929 8.12501 11.6704 8.2172 11.5063 8.38129C11.3422 8.54538 11.25 8.76794 11.25 9.00001C11.25 9.23207 11.3422 9.45463 11.5063 9.61873C11.6704 9.78282 11.8929 9.87501 12.125 9.87501ZM6.875 16C7.10706 16 7.32962 15.9078 7.49372 15.7437C7.65781 15.5796 7.75 15.3571 7.75 15.125C7.75 14.8929 7.65781 14.6704 7.49372 14.5063C7.32962 14.3422 7.10706 14.25 6.875 14.25C6.64294 14.25 6.42038 14.3422 6.25628 14.5063C6.09219 14.6704 6 14.8929 6 15.125C6 15.3571 6.09219 15.5796 6.25628 15.7437C6.42038 15.9078 6.64294 16 6.875 16Z" fill="#7682A7"/>
</svg>
