<svg width="15" height="13" viewBox="0 0 15 13" fill="none" xmlns="http://www.w3.org/2000/svg">
<path d="M13.28 1.54167C12.5292 0.788861 11.5339 0.329388 10.4739 0.246251C9.41386 0.163114 8.35907 0.461794 7.50003 1.08834C6.59879 0.417999 5.47703 0.114034 4.36064 0.237657C3.24426 0.361279 2.21618 0.903306 1.48343 1.75459C0.750683 2.60587 0.367698 3.70317 0.4116 4.82552C0.455502 5.94787 0.923028 7.0119 1.72003 7.80334L6.11878 12.2092C6.48713 12.5717 6.98322 12.7749 7.50003 12.7749C8.01684 12.7749 8.51294 12.5717 8.88128 12.2092L13.28 7.80334C14.1071 6.97124 14.5713 5.8457 14.5713 4.67251C14.5713 3.49931 14.1071 2.37377 13.28 1.54167ZM12.2813 6.82584L7.88253 11.2246C7.83248 11.2751 7.7729 11.3153 7.70725 11.3426C7.6416 11.37 7.57117 11.3841 7.50003 11.3841C7.4289 11.3841 7.35847 11.37 7.29282 11.3426C7.22716 11.3153 7.16759 11.2751 7.11753 11.2246L2.71878 6.80459C2.16328 6.23675 1.85221 5.47396 1.85221 4.67959C1.85221 3.88522 2.16328 3.12243 2.71878 2.55459C3.28485 1.99571 4.0483 1.68233 4.84378 1.68233C5.63926 1.68233 6.40271 1.99571 6.96878 2.55459C7.03463 2.62098 7.11297 2.67368 7.19929 2.70964C7.28561 2.7456 7.37819 2.76411 7.4717 2.76411C7.56521 2.76411 7.65779 2.7456 7.74411 2.70964C7.83042 2.67368 7.90877 2.62098 7.97462 2.55459C8.54068 1.99571 9.30414 1.68233 10.0996 1.68233C10.8951 1.68233 11.6585 1.99571 12.2246 2.55459C12.7878 3.11499 13.109 3.87364 13.1196 4.66803C13.1302 5.46243 12.8293 6.22938 12.2813 6.80459V6.82584Z" fill="#7682A7"/>
</svg>
