<svg width="12" height="13" viewBox="0 0 12 13" fill="none" xmlns="http://www.w3.org/2000/svg">
<path d="M5.41677 10.6345C4.08443 10.4839 2.8602 9.82924 1.99512 8.80481C1.13003 7.78039 0.68964 6.46382 0.764244 5.12507C0.838847 3.78632 1.42279 2.52683 2.39634 1.60486C3.36989 0.682894 4.65927 0.168311 6.0001 0.166627C7.34258 0.16565 8.63443 0.67899 9.61009 1.60112C10.5858 2.52326 11.1711 3.78412 11.2458 5.12452C11.3205 6.46492 10.8789 7.78301 10.0117 8.80784C9.14452 9.83266 7.91771 10.4864 6.58343 10.6345V13H5.41677V10.6345ZM6.0001 9.49996C6.53633 9.49996 7.06731 9.39434 7.56272 9.18914C8.05814 8.98393 8.50828 8.68315 8.88745 8.30398C9.26662 7.92481 9.5674 7.47467 9.77261 6.97925C9.97781 6.48384 10.0834 5.95286 10.0834 5.41663C10.0834 4.8804 9.97781 4.34942 9.77261 3.854C9.5674 3.35859 9.26662 2.90845 8.88745 2.52927C8.50828 2.1501 8.05814 1.84933 7.56272 1.64412C7.06731 1.43891 6.53633 1.33329 6.0001 1.33329C4.91713 1.33329 3.87852 1.7635 3.11275 2.52927C2.34697 3.29505 1.91677 4.33366 1.91677 5.41663C1.91677 6.4996 2.34697 7.53821 3.11275 8.30398C3.87852 9.06975 4.91713 9.49996 6.0001 9.49996Z" fill="#02050C"/>
</svg>
