<svg width="20" height="21" viewBox="0 0 20 21" fill="none" xmlns="http://www.w3.org/2000/svg">
<path d="M11.6666 15.7323L7.2926 13.3469C6.72155 13.9573 5.98008 14.382 5.16455 14.5655C4.34901 14.749 3.49713 14.683 2.7196 14.3761C1.94207 14.0691 1.27485 13.5354 0.804647 12.8442C0.334446 12.1531 0.0830078 11.3364 0.0830078 10.5005C0.0830078 9.66458 0.334446 8.84798 0.804647 8.15682C1.27485 7.46567 1.94207 6.93192 2.7196 6.62495C3.49713 6.31798 4.34901 6.25198 5.16455 6.43553C5.98008 6.61907 6.72155 7.04368 7.2926 7.65416L11.6676 5.26874C11.4192 4.28549 11.538 3.2454 12.0016 2.34343C12.4652 1.44147 13.2419 0.739557 14.186 0.369266C15.1301 -0.00102559 16.1769 -0.0142725 17.1301 0.332008C18.0833 0.678289 18.8774 1.36032 19.3637 2.25027C19.85 3.14021 19.9951 4.17696 19.7717 5.16619C19.5482 6.15541 18.9717 7.0292 18.1501 7.62375C17.3286 8.21831 16.3183 8.49282 15.3088 8.39582C14.2994 8.29882 13.3599 7.83698 12.6666 7.09687L8.29156 9.48228C8.45947 10.1504 8.45947 10.8496 8.29156 11.5177L12.6655 13.9031C13.3588 13.163 14.2983 12.7012 15.3078 12.6042C16.3173 12.5072 17.3275 12.7817 18.1491 13.3762C18.9707 13.9708 19.5472 14.8446 19.7706 15.8338C19.994 16.823 19.849 17.8598 19.3627 18.7497C18.8764 19.6397 18.0822 20.3217 17.129 20.668C16.1758 21.0143 15.1291 21.001 14.185 20.6307C13.2408 20.2604 12.4642 19.5585 12.0005 18.6566C11.5369 17.7546 11.4182 16.7145 11.6666 15.7312V15.7323ZM4.24989 12.5833C4.80242 12.5833 5.33233 12.3638 5.72303 11.9731C6.11373 11.5824 6.33322 11.0525 6.33322 10.5C6.33322 9.94746 6.11373 9.41755 5.72303 9.02685C5.33233 8.63615 4.80242 8.41666 4.24989 8.41666C3.69735 8.41666 3.16745 8.63615 2.77675 9.02685C2.38605 9.41755 2.16656 9.94746 2.16656 10.5C2.16656 11.0525 2.38605 11.5824 2.77675 11.9731C3.16745 12.3638 3.69735 12.5833 4.24989 12.5833ZM15.7082 6.33333C16.2608 6.33333 16.7907 6.11383 17.1814 5.72313C17.5721 5.33243 17.7916 4.80253 17.7916 4.24999C17.7916 3.69746 17.5721 3.16755 17.1814 2.77685C16.7907 2.38615 16.2608 2.16666 15.7082 2.16666C15.1557 2.16666 14.6258 2.38615 14.2351 2.77685C13.8444 3.16755 13.6249 3.69746 13.6249 4.24999C13.6249 4.80253 13.8444 5.33243 14.2351 5.72313C14.6258 6.11383 15.1557 6.33333 15.7082 6.33333ZM15.7082 18.8333C16.2608 18.8333 16.7907 18.6138 17.1814 18.2231C17.5721 17.8324 17.7916 17.3025 17.7916 16.75C17.7916 16.1975 17.5721 15.6676 17.1814 15.2769C16.7907 14.8862 16.2608 14.6667 15.7082 14.6667C15.1557 14.6667 14.6258 14.8862 14.2351 15.2769C13.8444 15.6676 13.6249 16.1975 13.6249 16.75C13.6249 17.3025 13.8444 17.8324 14.2351 18.2231C14.6258 18.6138 15.1557 18.8333 15.7082 18.8333Z" fill="#7682A7"/>
</svg>
